<?xml version="1.0" standalone="no"?>
<!DOCTYPE svg PUBLIC "-//W3C//DTD SVG 20010904//EN"
 "http://www.w3.org/TR/2001/REC-SVG-20010904/DTD/svg10.dtd">
<svg version="1.0" xmlns="http://www.w3.org/2000/svg"
 width="260.000000pt" height="260.000000pt" viewBox="0 0 260.000000 260.000000"
 preserveAspectRatio="xMidYMid meet">
<metadata>
Created by potrace 1.11, written by Peter Selinger 2001-2013
</metadata>
<g transform="translate(0.000000,260.000000) scale(0.100000,-0.100000)"
fill="#000000" stroke="none">
<path d="M1110 2233 c-238 -35 -503 -215 -723 -490 -313 -391 -395 -892 -190
-1152 162 -205 465 -236 717 -74 177 114 296 288 296 432 l0 41 93 0 c81 0 96
3 112 20 55 61 -63 203 -190 228 -56 11 -231 3 -277 -13 -7 -2 -31 -6 -53 -9
-22 -3 -52 -8 -67 -11 -59 -11 -85 -15 -138 -20 -30 -4 -68 -8 -85 -10 -16 -2
-45 -4 -62 -4 -66 -2 -88 -56 -47 -120 53 -83 125 -122 228 -125 73 -1 183 10
212 21 48 18 -115 -183 -199 -246 -91 -68 -159 -99 -232 -106 -21 -2 -81 18
-97 32 -37 33 -61 122 -61 228 0 147 34 297 103 450 14 33 26 63 26 66 -1 4 6
15 15 25 9 11 28 40 42 66 106 185 352 413 555 514 76 38 104 47 150 48 l57 1
-2 -40 c-1 -22 -23 -96 -49 -165 -42 -110 -48 -134 -48 -205 -1 -64 4 -88 21
-122 27 -50 89 -103 121 -103 32 0 67 42 91 108 11 31 41 109 67 172 42 102
47 123 47 190 0 156 -101 304 -244 356 -43 15 -139 24 -189 17z"/>
<path d="M2293 2202 c-22 -18 -133 -185 -133 -201 0 -5 -4 -11 -8 -13 -7 -3
-61 -92 -127 -213 -15 -27 -31 -54 -35 -60 -7 -10 -48 -85 -162 -300 -125
-234 -272 -542 -312 -653 -29 -81 -32 -112 -14 -163 13 -40 87 -158 111 -178
28 -22 93 -17 257 22 187 44 304 65 408 72 42 3 88 11 101 18 21 10 22 16 17
57 -13 91 -104 160 -218 165 -55 3 -115 -4 -271 -29 -22 -3 -59 -11 -83 -17
-25 -7 -46 -10 -49 -8 -6 7 177 364 315 614 73 132 148 269 168 305 19 36 44
77 54 93 11 15 16 27 13 27 -3 0 2 12 13 28 20 28 66 139 76 182 14 61 15 128
1 175 -25 86 -72 117 -122 77z"/>
</g>
</svg>
